<svg width="18" height="16" fill="none" xmlns="http://www.w3.org/2000/svg"><path fill-rule="evenodd" clip-rule="evenodd" d="M5.893 2.127c-.915 0-1.829.331-2.526.994a3.256 3.256 0 00-1.034 2.372 3.26 3.26 0 001.034 2.372L9 13.225l5.633-5.36a3.256 3.256 0 001.034-2.372 3.26 3.26 0 00-1.034-2.372c-1.393-1.325-3.66-1.325-5.052 0L9 3.674l-.58-.553a3.656 3.656 0 00-2.527-.994zM9 15.5L2.206 9.034C1.213 8.09.666 6.832.666 5.494c0-1.34.547-2.597 1.54-3.542C4.056.19 6.96.032 9 1.474c2.04-1.442 4.944-1.283 6.794.478.993.945 1.54 2.202 1.54 3.541 0 1.34-.547 2.597-1.54 3.541L9 15.5z" fill="#101010"/></svg>