<svg width="16" height="16" fill="none" xmlns="http://www.w3.org/2000/svg"><path fill-rule="evenodd" clip-rule="evenodd" d="M6.166 6.374A.75.75 0 006.5 5.75v-3A2.25 2.25 0 004.25.5h-3a.75.75 0 00-.75.75C.5 8.706 7.294 15.5 14.75 15.5a.75.75 0 00.75-.75v-3a2.25 2.25 0 00-2.25-2.25h-3a.75.75 0 00-.624.334l-1.43 2.143a14.166 14.166 0 01-3.968-3.865l-.205-.309 2.143-1.429zM10.651 11h2.599a.75.75 0 01.75.75v2.224a11.9 11.9 0 01-4.193-1.105l-.304-.146L10.651 11zM2.026 2H4.25a.75.75 0 01.75.75v2.599L3.278 6.497C2.577 5.089 2.134 3.565 2.026 2z" fill="#FAFAFA"/></svg>